<svg width="311" height="48" viewBox="0 0 311 48" fill="none" xmlns="http://www.w3.org/2000/svg">
<rect width="311" height="48" rx="8" fill="#FFDD2D"/>
<path d="M162.484 27.9688C162.828 27.9688 163.146 27.8984 163.438 27.7578C163.729 27.6172 163.969 27.4245 164.156 27.1797C164.344 26.9297 164.451 26.6458 164.477 26.3281H165.852C165.826 26.8281 165.656 27.2943 165.344 27.7266C165.036 28.1536 164.633 28.5 164.133 28.7656C163.633 29.026 163.083 29.1562 162.484 29.1562C161.849 29.1562 161.294 29.0443 160.82 28.8203C160.352 28.5964 159.961 28.2891 159.648 27.8984C159.341 27.5078 159.109 27.0599 158.953 26.5547C158.802 26.0443 158.727 25.5052 158.727 24.9375V24.6094C158.727 24.0417 158.802 23.5052 158.953 23C159.109 22.4896 159.341 22.0391 159.648 21.6484C159.961 21.2578 160.352 20.9505 160.82 20.7266C161.294 20.5026 161.849 20.3906 162.484 20.3906C163.146 20.3906 163.724 20.526 164.219 20.7969C164.714 21.0625 165.102 21.4271 165.383 21.8906C165.669 22.349 165.826 22.8698 165.852 23.4531H164.477C164.451 23.1042 164.352 22.7891 164.18 22.5078C164.013 22.2266 163.784 22.0026 163.492 21.8359C163.206 21.6641 162.87 21.5781 162.484 21.5781C162.042 21.5781 161.669 21.6667 161.367 21.8438C161.07 22.0156 160.833 22.25 160.656 22.5469C160.484 22.8385 160.359 23.1641 160.281 23.5234C160.208 23.8776 160.172 24.2396 160.172 24.6094V24.9375C160.172 25.3073 160.208 25.6719 160.281 26.0312C160.354 26.3906 160.477 26.7161 160.648 27.0078C160.826 27.2995 161.062 27.5339 161.359 27.7109C161.661 27.8828 162.036 27.9688 162.484 27.9688Z" fill="#0F0F10"/>
<path d="M147.633 23.4531H150.172C150.854 23.4531 151.43 23.5729 151.898 23.8125C152.367 24.0469 152.721 24.3724 152.961 24.7891C153.206 25.2005 153.328 25.6693 153.328 26.1953C153.328 26.5859 153.26 26.9531 153.125 27.2969C152.99 27.6354 152.786 27.9323 152.516 28.1875C152.25 28.4427 151.919 28.6432 151.523 28.7891C151.133 28.9297 150.682 29 150.172 29H146.578V20.5469H148.023V27.8125H150.172C150.589 27.8125 150.922 27.737 151.172 27.5859C151.422 27.4349 151.602 27.2396 151.711 27C151.82 26.7604 151.875 26.5104 151.875 26.25C151.875 25.9948 151.82 25.7448 151.711 25.5C151.602 25.2552 151.422 25.0521 151.172 24.8906C150.922 24.724 150.589 24.6406 150.172 24.6406H147.633V23.4531Z" fill="#0F0F10"/>
<path d="M142.188 20.5469V29H140.734V20.5469H142.188ZM145.023 20.5469V21.7188H137.953V20.5469H145.023Z" fill="#0F0F10"/>
<path d="M131.07 26.7109L134.969 20.5469H136.422V29H134.969V22.8359L131.07 29H129.633V20.5469H131.07V26.7109Z" fill="#0F0F10"/>
<path d="M125.25 20.5469V29H123.797V20.5469H125.25ZM128.086 20.5469V21.7188H121.016V20.5469H128.086Z" fill="#0F0F10"/>
<path d="M118.211 27.5547V23.2031C118.211 22.8698 118.143 22.5807 118.008 22.3359C117.878 22.0859 117.68 21.8932 117.414 21.7578C117.148 21.6224 116.82 21.5547 116.43 21.5547C116.065 21.5547 115.745 21.6172 115.469 21.7422C115.198 21.8672 114.984 22.0312 114.828 22.2344C114.677 22.4375 114.602 22.6562 114.602 22.8906H113.156C113.156 22.5885 113.234 22.2891 113.391 21.9922C113.547 21.6953 113.771 21.4271 114.062 21.1875C114.359 20.9427 114.714 20.75 115.125 20.6094C115.542 20.4635 116.005 20.3906 116.516 20.3906C117.13 20.3906 117.672 20.4948 118.141 20.7031C118.615 20.9115 118.984 21.2266 119.25 21.6484C119.521 22.0651 119.656 22.5885 119.656 23.2188V27.1562C119.656 27.4375 119.68 27.737 119.727 28.0547C119.779 28.3724 119.854 28.6458 119.953 28.875V29H118.445C118.372 28.8333 118.315 28.612 118.273 28.3359C118.232 28.0547 118.211 27.7943 118.211 27.5547ZM118.461 23.875L118.477 24.8906H117.016C116.604 24.8906 116.237 24.9245 115.914 24.9922C115.591 25.0547 115.32 25.151 115.102 25.2812C114.883 25.4115 114.716 25.5755 114.602 25.7734C114.487 25.9661 114.43 26.1927 114.43 26.4531C114.43 26.7188 114.49 26.9609 114.609 27.1797C114.729 27.3984 114.909 27.5729 115.148 27.7031C115.393 27.8281 115.693 27.8906 116.047 27.8906C116.49 27.8906 116.88 27.7969 117.219 27.6094C117.557 27.4219 117.826 27.1927 118.023 26.9219C118.227 26.651 118.336 26.388 118.352 26.1328L118.969 26.8281C118.932 27.0469 118.833 27.2891 118.672 27.5547C118.51 27.8203 118.294 28.0755 118.023 28.3203C117.758 28.5599 117.44 28.7604 117.07 28.9219C116.706 29.0781 116.294 29.1562 115.836 29.1562C115.263 29.1562 114.76 29.0443 114.328 28.8203C113.901 28.5964 113.568 28.2969 113.328 27.9219C113.094 27.5417 112.977 27.1172 112.977 26.6484C112.977 26.1953 113.065 25.7969 113.242 25.4531C113.419 25.1042 113.674 24.8151 114.008 24.5859C114.341 24.3516 114.742 24.1745 115.211 24.0547C115.68 23.9349 116.203 23.875 116.781 23.875H118.461Z" fill="#0F0F10"/>
<path d="M109.625 20.5469V21.7422H105.539V20.5469H109.625ZM110.898 20.5469V29H109.453V20.5469H110.898ZM105.188 20.5469H106.641L106.422 24.625C106.385 25.2552 106.326 25.8125 106.242 26.2969C106.164 26.776 106.055 27.1875 105.914 27.5312C105.779 27.875 105.607 28.1562 105.398 28.375C105.195 28.5885 104.951 28.7474 104.664 28.8516C104.378 28.9505 104.047 29 103.672 29H103.219V27.7266L103.531 27.7031C103.755 27.6875 103.945 27.6354 104.102 27.5469C104.263 27.4583 104.398 27.3281 104.508 27.1562C104.617 26.9792 104.706 26.7526 104.773 26.4766C104.846 26.2005 104.901 25.8724 104.938 25.4922C104.979 25.112 105.01 24.6693 105.031 24.1641L105.188 20.5469Z" fill="#0F0F10"/>
<path d="M100.375 20.5469V21.7422H96.1016V20.5469H100.375ZM96.3125 20.5469V29H94.8672V20.5469H96.3125ZM101.656 20.5469V29H100.203V20.5469H101.656Z" fill="#0F0F10"/>
<path d="M92.7031 22.9531V23.6719C92.7031 24.526 92.5964 25.2917 92.3828 25.9688C92.1693 26.6458 91.862 27.2214 91.4609 27.6953C91.0599 28.1693 90.5781 28.5312 90.0156 28.7812C89.4583 29.0312 88.8333 29.1562 88.1406 29.1562C87.4688 29.1562 86.8516 29.0312 86.2891 28.7812C85.7318 28.5312 85.2474 28.1693 84.8359 27.6953C84.4297 27.2214 84.1146 26.6458 83.8906 25.9688C83.6667 25.2917 83.5547 24.526 83.5547 23.6719V22.9531C83.5547 22.099 83.6641 21.3359 83.8828 20.6641C84.1068 19.987 84.4219 19.4115 84.8281 18.9375C85.2344 18.4583 85.7161 18.0938 86.2734 17.8438C86.8359 17.5938 87.4531 17.4688 88.125 17.4688C88.8177 17.4688 89.4427 17.5938 90 17.8438C90.5625 18.0938 91.0443 18.4583 91.4453 18.9375C91.8516 19.4115 92.1615 19.987 92.375 20.6641C92.5938 21.3359 92.7031 22.099 92.7031 22.9531ZM91.2109 23.6719V22.9375C91.2109 22.2604 91.1406 21.6615 91 21.1406C90.8646 20.6198 90.6641 20.1823 90.3984 19.8281C90.1328 19.474 89.8073 19.2057 89.4219 19.0234C89.0417 18.8411 88.6094 18.75 88.125 18.75C87.6562 18.75 87.2318 18.8411 86.8516 19.0234C86.4766 19.2057 86.1536 19.474 85.8828 19.8281C85.6172 20.1823 85.4115 20.6198 85.2656 21.1406C85.1198 21.6615 85.0469 22.2604 85.0469 22.9375V23.6719C85.0469 24.3542 85.1198 24.9583 85.2656 25.4844C85.4115 26.0052 85.6198 26.4453 85.8906 26.8047C86.1667 27.1589 86.4922 27.4271 86.8672 27.6094C87.2474 27.7917 87.6719 27.8828 88.1406 27.8828C88.6302 27.8828 89.0651 27.7917 89.4453 27.6094C89.8255 27.4271 90.1458 27.1589 90.4062 26.8047C90.6719 26.4453 90.8724 26.0052 91.0078 25.4844C91.1432 24.9583 91.2109 24.3542 91.2109 23.6719Z" fill="#0F0F10"/>
<g clip-path="url(#clip0_3243_12745)">
<path d="M217.28 12.75H185.72C179.525 12.75 174.5 17.79 174.5 24C174.5 30.21 179.525 35.25 185.72 35.25H217.28C223.475 35.25 228.5 30.21 228.5 24C228.5 17.79 223.475 12.75 217.28 12.75Z" fill="#303030"/>
<path d="M199.956 24.2249V22.3949H201.936C202.356 22.3949 202.596 22.4399 202.791 22.5149C203.136 22.6499 203.301 22.9649 203.301 23.3099C203.301 23.6549 203.106 24.0149 202.731 24.1349C202.551 24.1949 202.341 24.2249 201.936 24.2249H199.956ZM202.251 20.6699H197.766V27.8399H199.941V25.9049H202.236C202.776 25.9049 203.301 25.9049 203.811 25.7249C204.801 25.4099 205.536 24.5249 205.536 23.3249C205.536 22.1249 204.816 21.2399 203.841 20.8949C203.301 20.6999 202.791 20.6699 202.236 20.6699H202.251Z" fill="white"/>
<path d="M208.131 26.8049H211.431L211.851 27.8399H214.296L211.371 20.6699H208.191L205.266 27.8399H207.726L208.131 26.8049ZM208.671 25.2149L209.706 22.3199H209.871L210.906 25.2149H208.671Z" fill="white"/>
<path d="M219.604 20.6699L217.834 23.9399H217.759L215.974 20.6699H213.439L216.664 25.9349V27.8399H218.914V25.7549L221.989 20.6699H219.604Z" fill="white"/>
<path d="M181.011 18.541H193.116V24.646C193.116 26.206 192.276 27.661 190.926 28.441L187.056 30.676L183.186 28.441C181.836 27.661 180.996 26.206 180.996 24.646V18.541" fill="#FFDD2D"/>
<path fill-rule="evenodd" clip-rule="evenodd" d="M184.34 21.75V23.655C184.595 23.355 185.075 23.16 185.615 23.16H186.2V25.365C186.2 25.95 186.035 26.46 185.81 26.745H188.36C188.12 26.46 187.97 25.95 187.97 25.365V23.16H188.555C189.095 23.16 189.56 23.355 189.83 23.655V21.75H184.37" fill="#333333"/>
</g>
<defs>
<clipPath id="clip0_3243_12745">
<rect width="54" height="24" fill="white" transform="translate(174.5 12)"/>
</clipPath>
</defs>
</svg>
